<?xml version="1.0" encoding="UTF-8"?><svg id="_イヤー_1" xmlns="http://www.w3.org/2000/svg" viewBox="0 0 498.08 311.52"><defs><style>.cls-1{fill:#008900;}.cls-2{fill:none;}</style></defs><g><path class="cls-2" d="M330.68,135.78c3.54-23.87,.68-42.53-24.6-45.8-20.76-2.68-53.73,9.07-64.77,44.81,25.28,3.26,50.56,6.53,77.37,8.61,8.12,1.05,11.13-.86,12-7.63Z"/><path class="cls-2" d="M335.06,216.25l7.03-54.71c-22.99-.95-65.45-3.8-105.53-7.61-9.16,60.31,24.65,89.92,56.7,94.05,12.93,1.67,25.67-.5,38.55-6.45l3.25-25.28Z"/><path class="cls-2" d="M424.17,94.16c-13.09-1.68-28.51,.47-37.67,3.88l-15.08,117.37c-.93,7.22-1,11.34,.23,16.09,3.97,11.98,19.89,27.34,41.56,30.12,38.82,4.99,62.53-25.92,69.08-76.94,6.61-51.46-20.65-85.71-58.12-90.53Z"/><path class="cls-1" d="M435.99,145.65c-4.34-.56-9.91-.17-16.38,1.57l-30.92,8.89,9.02-70.16,5.53-43.04c-13.99,2.98-28.98,9.56-46.25,9.55l-1.21,9.4c22.91,4.78,15.59,3.05,12.71,25.48l-9.56,74.44c-8.42-9.42-11.89-12.12-25.59-13.88-18.81-2.43-48.04,.37-65.42,15.41-16.88,14-28.5,35.66-31.67,60.25-5.37,41.59,16.73,81.21,60.85,86.9,9.65,1.25,29.41-.56,51.3-16.24,16.85,9.61,34.12,14.77,48.02,16.56,47.33,6.45,94.72-30.47,101-79.3,5.53-43.04-22.7-80.86-61.4-85.83Zm-113.12,14.87c20.25,2.61,22.54,17.57,19.71,36.69-.7,5.42-3.1,6.95-9.61,6.11-21.48-1.67-41.73-4.28-61.98-6.9,8.84-28.64,35.25-38.05,51.89-35.9Zm-55.7,51.22c32.11,3.05,66.12,5.34,84.55,6.1l-5.63,43.83-2.6,20.25c-10.32,4.77-20.53,6.51-30.89,5.17-25.68-3.31-52.77-27.03-45.43-75.35Zm141.52,86.28c-17.36-2.23-30.12-14.53-33.3-24.13-.98-3.8-.93-7.1-.18-12.89l12.08-94.03c7.34-2.73,19.69-4.45,30.18-3.11,30.02,3.86,51.86,31.3,46.56,72.53-5.25,40.87-24.24,65.63-55.35,61.64Z"/></g><path d="M316.31,9.37c-23.43,3.35-26.78,6.02-35.81,33.47-11.05,33.47-37.82,118.49-56.23,178.4h-11.38c-17.41-52.22-39.83-116.82-57.24-166.35-19.41,57.57-39.16,114.81-56.57,166.35h-11.05c-16.74-57.57-35.81-120.16-53.89-178.74C25.44,15.4,21.76,11.72,0,9.37V0H82.68V9.37c-24.77,2.68-25.44,6.36-20.75,23.1,13.05,45.19,26.44,89.7,40.17,136.9C120.5,116.15,140.58,57.91,157.65,3.01h10.71c18.74,56.9,37.49,109.79,56.9,166.69,14.06-44.52,33.14-104.1,40.5-133.22,5.02-19.41,2.34-23.76-26.11-27.11V0h76.65V9.37Z"/></svg>